# xmcd CD database file
#
# Track frame offsets:
#	183
#	22788
#	44730
#	61945
#	85260
#	104283
#	128453
#	153328
#	179163
#
# Disc length: 2685 seconds
#
# Revision: 1
# Processed by: cddbd v1.5.2PL0 Copyright (c) Steve Scherf et al.
# Submitted via: CDex 1.70beta2
#
DISCID=6d0a7b09
DTITLE=George Shearing - The MPS Trio Sessions CD 4
DYEAR=1900
DGENRE=Jazz
TTITLE0=Fjarlins Vingor
TTITLE1=Last Night When We Were Young
TTITLE2=Amaryllis
TTITLE3=Strange Enchantment
TTITLE4=Look At The Face
TTITLE5=Portrait Of Jenny
TTITLE6=Song Bird
TTITLE7=This Is All I Ask
TTITLE8=A Nightingale Sang In Berkley Square
EXTD=
EXTT0=
EXTT1=
EXTT2=
EXTT3=
EXTT4=
EXTT5=
EXTT6=
EXTT7=
EXTT8=
PLAYORDER=
